<svg xmlns="http://www.w3.org/2000/svg" width="16" height="13" viewBox="0 0 16 13">
    <g fill="none" fill-rule="evenodd">
        <path d="M0-1h16v16H0z"/>
        <path fill="#000" fill-rule="nonzero" d="M11.473 5L8.553.627A.662.662 0 0 0 8 .347a.652.652 0 0 0-.553.286L4.527 5H1.333a.669.669 0 0 0-.64.847l1.694 6.18c.153.56.666.973 1.28.973h8.666a1.34 1.34 0 0 0 1.287-.973l1.693-6.18.02-.18c0-.367-.3-.667-.666-.667h-3.194zM6 5l2-2.933L10 5H6zm2 5.333c-.733 0-1.333-.6-1.333-1.333S7.267 7.667 8 7.667s1.333.6 1.333 1.333-.6 1.333-1.333 1.333z"/>
    </g>
</svg>
